<svg width="394" height="236" viewBox="0 0 394 236" fill="none" xmlns="http://www.w3.org/2000/svg">
<rect width="394" height="236" rx="20" fill="#2C2C2C"/>
<rect x="59" width="276" height="236" fill="#1E1E1E"/>
<path d="M0 20C0 8.95431 8.95431 0 20 0H374C385.046 0 394 8.95431 394 20V30H0V20Z" fill="#383838"/>
<path d="M375 19L381.93 12.0714M382 18.9286L375.07 12" stroke="white" stroke-width="2" stroke-linecap="round"/>
<rect x="371" y="33" width="20" height="12" rx="4" fill="#0C8CE9"/>
<circle cx="342.5" cy="38.5" r="5.5" fill="#F24822"/>
<rect x="120" y="205" width="135" height="21" rx="6" fill="#2C2C2C"/>
<rect x="124" y="208" width="17" height="15" rx="6" fill="#0C8CE9"/>
<rect x="5" y="45" width="39" height="7" rx="3.5" fill="#D9D9D9"/>
<rect x="340" y="54" width="39" height="7" rx="3.5" fill="#5C5C5C"/>
<rect x="340" y="65" width="39" height="7" rx="3.5" fill="#5C5C5C"/>
<rect x="340" y="76" width="25" height="7" rx="3.5" fill="#5C5C5C"/>
<rect x="5" y="58" width="30" height="7" rx="3.5" fill="#D9D9D9"/>
<rect x="5" y="71" width="30" height="7" rx="3.5" fill="#D9D9D9"/>
<rect x="5" y="84" width="36" height="7" rx="3.5" fill="#D9D9D9"/>
<rect x="5" y="97" width="21" height="7" rx="3.5" fill="#D9D9D9"/>
</svg>
