<?xml version="1.0" encoding="UTF-8"?>
<svg id="Laag_1" data-name="Laag 1" xmlns="http://www.w3.org/2000/svg" xmlns:xlink="http://www.w3.org/1999/xlink" viewBox="0 0 500 500">
  <defs>
    <filter id="drop-shadow-1" filterUnits="userSpaceOnUse">
      <feOffset dx="0" dy="6"/>
      <feGaussianBlur result="blur" stdDeviation="3"/>
      <feFlood flood-color="#000" flood-opacity=".3"/>
      <feComposite in2="blur" operator="in"/>
      <feComposite in="SourceGraphic"/>
    </filter>
  </defs>
  <g filter="url(#drop-shadow-1)">
    <path d="m165.63,275.66c.58-.19,1.12.4.86.95-.28.59-.58,1.17-.91,1.74-2.09,3.62-4.88,6.49-8.38,8.62s-7.42,3.19-11.75,3.19-8.03-1.09-11.57-3.25c-.22-.13-.44-.28-.65-.41l32.41-10.84Z" fill="#2c3449" stroke="#d9ff02" stroke-miterlimit="10" stroke-width=".5"/>
    <path d="m168.7,265.09c0,2.77-.41,5.39-1.23,7.85-.21.62-.68,1.11-1.3,1.32l-31.99,10.7c-.63.21-1.32.1-1.86-.29-2.82-2.02-5.12-4.58-6.89-7.65-2.09-3.62-3.13-7.6-3.13-11.93l.24-59.04c0-.31.16-.47.47-.47h11.18c1.39,0,2.51,1.13,2.51,2.51v57c0,2.68.85,4.94,2.54,6.79,1.69,1.86,3.76,2.78,6.2,2.78s4.63-.92,6.32-2.78c1.69-1.84,2.53-4.11,2.53-6.79v-57c0-1.39,1.13-2.51,2.51-2.51h11.18c.31,0,.47.16.47.47l.24,59.04Z" fill="#d9ff02"/>
    <path d="m224.32,288.27c0,.47-.2.71-.59.71h-8.99c-.85,0-1.63-.49-1.99-1.27l-10.25-21.79c-.56-1.19.04-2.61,1.3-3.03l17.58-5.87c1.43-.48,2.9.58,2.9,2.09l.04,29.17Z" fill="#2c3449" stroke="#d9ff02" stroke-miterlimit="10" stroke-width=".5"/>
    <path d="m193.74,288.04c0,.63-.35.94-1.06.94h-11.81c-.63,0-.94-.28-.94-.83l-.02-15.9c0-.82.52-1.54,1.29-1.8l9.68-3.24c1.21-.41,2.47.48,2.5,1.76l.37,19.05Z" fill="#2c3449" stroke="#d9ff02" stroke-miterlimit="10" stroke-width=".5"/>
    <path d="m261.99,288.39c0,.39-.16.59-.47.59h-13.34c-.31,0-.47-.2-.47-.59v-37.98c0-1.31.84-2.47,2.08-2.89l8.13-2.72c1.97-.66,4.01.8,4.01,2.88l.07,40.7Z" fill="#2c3449" stroke="#d9ff02" stroke-miterlimit="10" stroke-width=".5"/>
    <path d="m327.76,266.43c0,4.33-1.05,8.29-3.13,11.86-2.09,3.59-4.88,6.46-8.38,8.62-3.51,2.16-7.38,3.25-11.64,3.25s-8.13-1.09-11.64-3.25c-3.5-2.16-6.31-5.03-8.44-8.62-2.13-3.57-3.19-7.53-3.19-11.86l.09-28.11c0-.83.53-1.56,1.32-1.82l10.46-3.5c1.25-.42,2.54.51,2.54,1.83v31.61c0,2.6.87,4.83,2.6,6.67,1.73,1.86,3.82,2.78,6.26,2.78s4.43-.96,6.2-2.9c1.77-1.92,2.65-4.11,2.65-6.55l-.12-37.43c0-.39-.02-.77-.06-1.15-.09-.89.46-1.71,1.3-2l10.02-3.36c1.11-.37,2.27.32,2.51,1.46.34,1.62.51,3.3.51,5.04l.12,37.43Z" fill="#2c3449" stroke="#d9ff02" stroke-miterlimit="10" stroke-width=".5"/>
    <path d="m374.17,288.98h-13.23c-.31,0-.55-.2-.71-.59l-6.16-23.36c-.51-1.93-3.25-1.94-3.77,0l-6.25,23.37c-.08.39-.31.59-.71.59h-13.23c-.31,0-.43-.2-.35-.59l13.27-41.54c.13-.4.12-.83-.01-1.22l-8.3-24.44c-.35-1.02.2-2.13,1.23-2.48l8.62-2.88c1.06-.35,2.19.25,2.5,1.32l3.27,11.61c.53,1.89,3.21,1.9,3.75,0l4.81-16.83c.18-.62.65-1.11,1.26-1.31l11.11-3.71c.2-.07.41-.1.62-.1h2.15c.31,0,.43.16.35.47l-13.02,38.24c-.13.39-.14.82-.01,1.22l13.15,41.66c.16.39.04.59-.35.59Z" fill="#2c3449" stroke="#d9ff02" stroke-miterlimit="10" stroke-width=".5"/>
    <path d="m200.83,261.16l-4.69-9.98c-.74-1.58-3.11-1.03-3.08.72l.24,12.1c.01.71-.43,1.34-1.1,1.57l-10.17,3.4c-1.05.35-2.13-.43-2.13-1.53l-.09-60.91c0-.63.31-.94.94-.94h9.56c.65,0,1.23.39,1.49.98l16.33,38.07c.7,1.63,3.13,1.11,3.1-.66l-.49-37.44c0-.63.35-.94,1.06-.94h11.69c.47,0,.71.31.71.94l.07,47.15c0,.7-.44,1.32-1.1,1.54l-20.36,6.8c-.78.26-1.63-.1-1.98-.85Z" fill="#d9ff02"/>
    <path d="m277.81,206.05v13.23c0,.39-.16.59-.47.59h-12.13c-1.84,0-3.33,1.49-3.33,3.34l.03,16.64c0,1.43-.91,2.71-2.27,3.16l-7.54,2.52c-2.16.72-4.39-.88-4.39-3.16v-19.18c0-1.84-1.49-3.33-3.33-3.33h-12.02c-.39,0-.59-.2-.59-.59l.12-13.23c0-.31.16-.47.47-.47h44.87c.39,0,.59.16.59.47Z" fill="#d9ff02"/>
    <path d="m324.98,221.16l-10.39,3.48c-.8.27-1.69-.11-2.03-.89-.41-.94-.97-1.8-1.69-2.58-1.65-1.81-3.74-2.72-6.26-2.72s-4.53.88-6.26,2.65-2.6,4-2.6,6.68v1.96c0,.71-.45,1.34-1.13,1.57l-11,3.68c-1.07.36-2.18-.44-2.18-1.57l.02-5.63c0-4.33,1.04-8.27,3.13-11.81,2.08-3.54,4.9-6.38,8.44-8.5,3.54-2.13,7.4-3.19,11.57-3.19s8.11,1.06,11.57,3.19c3.46,2.13,6.23,4.96,8.33,8.5.57.97,1.07,1.98,1.48,3.02.35.88-.12,1.87-1.02,2.17Z" fill="#d9ff02"/>
    <path d="m345.27,214.37l-9.87,3.3c-.72.24-1.5-.15-1.75-.87l-3.65-10.76c-.08-.31.04-.47.35-.47h13.23c.39,0,.63.16.71.47l1.87,6.64c.2.71-.19,1.45-.89,1.69Z" fill="#d9ff02"/>
    <path d="m368.43,206.63l-8.27,2.76c-.41.14-.81-.24-.69-.66l.77-2.68c.08-.31.31-.47.71-.47h7.32c.61,0,.75.86.17,1.05Z" fill="#d9ff02"/>
  </g>
</svg>